Coordinates
version=1
nRows=24
nColumns=38
inDegrees=no

Units are S.I. units (second, meters, Newtons, ...)
If the header above contains a line with 'inDegrees', this indicates whether rotational values are in degrees (yes) or radians (no).

endheader
time	pelvis_tilt	pelvis_list	pelvis_rotation	pelvis_tx	pelvis_ty	pelvis_tz	hip_flexion_r	hip_adduction_r	hip_rotation_r	knee_angle_r	ankle_angle_r	subtalar_angle_r	mtp_angle_r	hip_flexion_l	hip_adduction_l	hip_rotation_l	knee_angle_l	ankle_angle_l	subtalar_angle_l	mtp_angle_l	lumbar_extension	lumbar_bending	lumbar_rotation	arm_flex_r	arm_add_r	arm_rot_r	elbow_flex_r	pro_sup_r	wrist_flex_r	wrist_dev_r	arm_flex_l	arm_add_l	arm_rot_l	elbow_flex_l	pro_sup_l	wrist_flex_l	wrist_dev_l
0	3.02228	1.34999	-1.40475	0.756277	-0.379097	1.08985	0.135968	-0.0342252	0.0923138	0.96546	-0.356546	0	0	-0.313067	-0.0188412	-0.295611	0.220433	-0.237223	0	0	-0.500958	0.133829	0.0761475	0.447216	-0.80319	1.24658	1.10478	0.466884	0	0	0.017494	-0.365515	0.358988	0.895504	1.03975	0	0
0.01	3.01892	1.35302	-1.4001	0.755034	-0.370754	1.08886	0.155545	-0.0301233	0.0982009	0.947515	-0.348277	0	0	-0.319878	-0.016845	-0.289287	0.214757	-0.236064	0	0	-0.496461	0.135047	0.0746771	0.453339	-0.800601	1.25347	1.10051	0.463508	0	0	0.0213321	-0.364457	0.360072	0.891104	1.03834	0	0
0.02	3.01422	1.35598	-1.39406	0.753904	-0.361926	1.08779	0.172173	-0.0261131	0.102672	0.925988	-0.3372	0	0	-0.325552	-0.0159678	-0.286581	0.21292	-0.233752	0	0	-0.494327	0.136009	0.0737738	0.458069	-0.799911	1.25804	1.09995	0.460793	0	0	0.0237291	-0.364458	0.359464	0.890321	1.03785	0	0
0.03	3.00994	1.35844	-1.38805	0.752765	-0.352948	1.08665	0.18698	-0.0229964	0.105936	0.902888	-0.325352	0	0	-0.330812	-0.0156167	-0.285362	0.213937	-0.230088	0	0	-0.493271	0.136957	0.072985	0.461683	-0.800223	1.26076	1.10119	0.458271	0	0	0.0257315	-0.365085	0.358563	0.891116	1.03839	0	0
0.04	3.00741	1.36085	-1.38356	0.751607	-0.343835	1.0854	0.200619	-0.0211213	0.108519	0.878189	-0.31446	0	0	-0.335808	-0.0152591	-0.284946	0.21674	-0.225298	0	0	-0.492405	0.137637	0.0720847	0.464517	-0.800805	1.26249	1.103	0.456184	0	0	0.027514	-0.36601	0.357614	0.892268	1.03948	0	0
0.05	3.00643	1.36327	-1.38071	0.750467	-0.334564	1.08404	0.213158	-0.0202431	0.110059	0.851714	-0.304721	0	0	-0.340802	-0.0148733	-0.285434	0.220586	-0.220139	0	0	-0.491356	0.137944	0.0716874	0.465599	-0.801767	1.26238	1.10518	0.454665	0	0	0.0294938	-0.366788	0.357039	0.893	1.04029	0	0
0.06	3.00666	1.36557	-1.37907	0.749358	-0.325149	1.08261	0.224213	-0.0197151	0.110143	0.824084	-0.294274	0	0	-0.345892	-0.0146533	-0.286671	0.225222	-0.214254	0	0	-0.490212	0.137931	0.0715621	0.465058	-0.80267	1.2603	1.1073	0.452767	0	0	0.0316594	-0.367667	0.357011	0.89344	1.04107	0	0
0.07	3.00788	1.36796	-1.37842	0.748326	-0.315621	1.0811	0.23452	-0.0195396	0.109271	0.795389	-0.284649	0	0	-0.350757	-0.0146939	-0.288368	0.230803	-0.20812	0	0	-0.488796	0.137677	0.0712357	0.464011	-0.803097	1.25778	1.10914	0.450859	0	0	0.033594	-0.368716	0.35711	0.893804	1.04172	0	0
0.08	3.00899	1.37086	-1.37787	0.747362	-0.30593	1.07948	0.244735	-0.0196318	0.107398	0.765538	-0.277002	0	0	-0.354979	-0.0150786	-0.290763	0.23721	-0.201937	0	0	-0.486571	0.137294	0.0711525	0.46202	-0.803289	1.25479	1.11063	0.44954	0	0	0.0353532	-0.369674	0.357402	0.893795	1.04274	0	0
0.09	3.00913	1.37423	-1.37657	0.746456	-0.296061	1.07776	0.254895	-0.0195781	0.104253	0.734983	-0.270927	0	0	-0.358659	-0.0159222	-0.293705	0.244089	-0.195775	0	0	-0.483588	0.137006	0.0712284	0.459027	-0.80326	1.25091	1.11195	0.448807	0	0	0.0366185	-0.370531	0.357412	0.893579	1.04425	0	0
0.1	3.00904	1.37797	-1.37512	0.7456	-0.285982	1.07596	0.26462	-0.0195507	0.0999302	0.703701	-0.265426	0	0	-0.362087	-0.0170097	-0.297145	0.251082	-0.189918	0	0	-0.47997	0.136667	0.0711769	0.455049	-0.803094	1.24605	1.11349	0.448837	0	0	0.0369633	-0.371333	0.356476	0.893765	1.0456	0	0
0.11	3.00864	1.38189	-1.37322	0.744767	-0.275754	1.07414	0.273607	-0.0195366	0.0943241	0.671986	-0.259589	0	0	-0.365284	-0.0183579	-0.30094	0.25823	-0.184637	0	0	-0.475885	0.136438	0.0709355	0.450067	-0.802779	1.23973	1.11504	0.448861	0	0	0.0370041	-0.372003	0.355052	0.893951	1.04679	0	0
0.12	3.00675	1.38578	-1.37001	0.744023	-0.265363	1.0723	0.281247	-0.0191391	0.0878707	0.639598	-0.251965	0	0	-0.368479	-0.0201579	-0.305455	0.265618	-0.179845	0	0	-0.471453	0.136433	0.0708884	0.444525	-0.802388	1.23288	1.11668	0.449008	0	0	0.0367361	-0.372681	0.353684	0.893928	1.04855	0	0
0.13	3.0021	1.38934	-1.3642	0.743368	-0.254755	1.07049	0.286782	-0.0183317	0.0794411	0.606752	-0.241228	0	0	-0.372133	-0.0227324	-0.31112	0.273119	-0.175247	0	0	-0.466904	0.137036	0.0710286	0.438852	-0.801864	1.22658	1.11817	0.449458	0	0	0.0363052	-0.37321	0.352508	0.893128	1.05096	0	0
0.14	2.99565	1.39234	-1.35614	0.74275	-0.24394	1.06868	0.290124	-0.0169675	0.0713735	0.574384	-0.226982	0	0	-0.376275	-0.0261217	-0.317167	0.281126	-0.170735	0	0	-0.462417	0.138235	0.0706882	0.433186	-0.801052	1.2211	1.11942	0.450496	0	0	0.0353098	-0.373741	0.351183	0.892177	1.05337	0	0
0.15	2.98711	1.39485	-1.34577	0.742185	-0.232917	1.06686	0.291853	-0.0148282	0.0643099	0.542835	-0.210258	0	0	-0.380734	-0.0303218	-0.32372	0.289734	-0.166683	0	0	-0.457911	0.140046	0.0701053	0.42745	-0.800156	1.21632	1.12062	0.4517	0	0	0.0337793	-0.373981	0.349576	0.890812	1.05503	0	0
0.16	2.97763	1.39705	-1.3344	0.741725	-0.221708	1.06501	0.292406	-0.0118934	0.0585259	0.512986	-0.193201	0	0	-0.385333	-0.0350587	-0.330325	0.298727	-0.163169	0	0	-0.453302	0.141997	0.0694019	0.421629	-0.799078	1.21211	1.12173	0.452751	0	0	0.0316375	-0.374556	0.347991	0.889495	1.05707	0	0
0.17	2.96763	1.39882	-1.32239	0.741318	-0.210278	1.06315	0.29214	-0.00845574	0.0536045	0.486116	-0.178513	0	0	-0.390317	-0.0403662	-0.337154	0.308186	-0.160142	0	0	-0.44862	0.14419	0.0686512	0.415288	-0.798219	1.20788	1.12323	0.453614	0	0	0.0289048	-0.375278	0.34622	0.888348	1.05945	0	0
0.18	2.95711	1.40009	-1.30962	0.740892	-0.198645	1.06133	0.291329	-0.00476675	0.0492781	0.464218	-0.166502	0	0	-0.395708	-0.0462877	-0.344293	0.318175	-0.157816	0	0	-0.443958	0.14676	0.0679641	0.408057	-0.797949	1.20291	1.12546	0.454043	0	0	0.0258626	-0.376056	0.344485	0.887439	1.06232	0	0
0.19	2.94701	1.40079	-1.29685	0.740436	-0.186827	1.05953	0.289679	-0.0011425	0.0468722	0.448343	-0.156027	0	0	-0.401622	-0.0526826	-0.351196	0.328371	-0.156319	0	0	-0.439483	0.149661	0.0665657	0.401072	-0.798037	1.19833	1.12848	0.454339	0	0	0.021716	-0.377079	0.341836	0.887638	1.06491	0	0
0.2	2.93694	1.40153	-1.28352	0.7399	-0.174814	1.05769	0.288046	0.00253876	0.0464761	0.439361	-0.147379	0	0	-0.40751	-0.0593473	-0.357411	0.338676	-0.155255	0	0	-0.43455	0.152941	0.0641592	0.394783	-0.798513	1.19516	1.13228	0.455358	0	0	0.0164729	-0.378144	0.33817	0.88876	1.06673	0	0
0.21	2.92599	1.4022	-1.26891	0.739327	-0.162622	1.05579	0.287061	0.00661902	0.0489348	0.438493	-0.142713	0	0	-0.413321	-0.0664509	-0.363068	0.349496	-0.154453	0	0	-0.429241	0.156646	0.0611521	0.389015	-0.799429	1.19331	1.13679	0.457131	0	0	0.0105839	-0.379541	0.334439	0.890476	1.06874	0	0
0.22	2.91609	1.40231	-1.25565	0.738939	-0.150316	1.05388	0.288748	0.0116815	0.0559573	0.451606	-0.142524	0	0	-0.419681	-0.0738443	-0.36909	0.360956	-0.154301	0	0	-0.424436	0.159972	0.0583138	0.382972	-0.800382	1.19082	1.14176	0.45857	0	0	0.00413679	-0.381533	0.330409	0.893522	1.07036	0	0
0.23	2.89807	1.38676	-1.22694	0.738751	-0.137054	1.05368	0.317238	-0.0186768	-0.174038	0.57076	-0.16157	0	0	-0.443406	-0.0941112	-0.377371	0.370434	-0.158411	0	0	-0.43348	0.170371	0.0513512	0.375142	-0.800528	1.18444	1.14899	0.459744	0	0	-0.00461481	-0.38797	0.325188	0.903889	1.0719	0	0
